<mxfile host="Electron" agent="Mozilla/5.0 (X11; Linux x86_64) AppleWebKit/537.36 (KHTML, like Gecko) draw.io/26.0.4 Chrome/128.0.6613.186 Electron/32.2.5 Safari/537.36" version="26.0.4">
  <diagram name="Page-1" id="L2v4aLG3oQXSbAca69Gm">
    <mxGraphModel dx="1114" dy="1027" grid="1" gridSize="10" guides="1" tooltips="1" connect="1" arrows="1" fold="1" page="1" pageScale="1" pageWidth="850" pageHeight="1100" math="0" shadow="0">
      <root>
        <mxCell id="0" />
        <mxCell id="1" parent="0" />
        <mxCell id="_4Rwr4IBbifDaKIr4gAn-2" value="&lt;font style=&quot;font-size: 20px;&quot;&gt;Availability zone (Same AZ)&lt;/font&gt;" style="sketch=0;outlineConnect=0;gradientColor=none;html=1;whiteSpace=wrap;fontSize=12;fontStyle=0;shape=mxgraph.aws4.group;grIcon=mxgraph.aws4.group_availability_zone;strokeColor=#545B64;fillColor=none;verticalAlign=top;align=left;spacingLeft=30;fontColor=#545B64;dashed=1;" vertex="1" parent="1">
          <mxGeometry x="470" y="260" width="400" height="290" as="geometry" />
        </mxCell>
        <mxCell id="_4Rwr4IBbifDaKIr4gAn-9" style="edgeStyle=orthogonalEdgeStyle;rounded=0;orthogonalLoop=1;jettySize=auto;html=1;endArrow=none;endFill=0;" edge="1" parent="1" source="_4Rwr4IBbifDaKIr4gAn-3" target="_4Rwr4IBbifDaKIr4gAn-4">
          <mxGeometry relative="1" as="geometry" />
        </mxCell>
        <mxCell id="_4Rwr4IBbifDaKIr4gAn-3" value="" style="sketch=0;points=[[0,0,0],[0.25,0,0],[0.5,0,0],[0.75,0,0],[1,0,0],[0,1,0],[0.25,1,0],[0.5,1,0],[0.75,1,0],[1,1,0],[0,0.25,0],[0,0.5,0],[0,0.75,0],[1,0.25,0],[1,0.5,0],[1,0.75,0]];outlineConnect=0;fontColor=#232F3E;fillColor=#ED7100;strokeColor=#ffffff;dashed=0;verticalLabelPosition=bottom;verticalAlign=top;align=center;html=1;fontSize=12;fontStyle=0;aspect=fixed;shape=mxgraph.aws4.resourceIcon;resIcon=mxgraph.aws4.ec2;" vertex="1" parent="1">
          <mxGeometry x="520" y="320" width="78" height="78" as="geometry" />
        </mxCell>
        <mxCell id="_4Rwr4IBbifDaKIr4gAn-4" value="" style="sketch=0;points=[[0,0,0],[0.25,0,0],[0.5,0,0],[0.75,0,0],[1,0,0],[0,1,0],[0.25,1,0],[0.5,1,0],[0.75,1,0],[1,1,0],[0,0.25,0],[0,0.5,0],[0,0.75,0],[1,0.25,0],[1,0.5,0],[1,0.75,0]];outlineConnect=0;fontColor=#232F3E;fillColor=#ED7100;strokeColor=#ffffff;dashed=0;verticalLabelPosition=bottom;verticalAlign=top;align=center;html=1;fontSize=12;fontStyle=0;aspect=fixed;shape=mxgraph.aws4.resourceIcon;resIcon=mxgraph.aws4.ec2;" vertex="1" parent="1">
          <mxGeometry x="640" y="320" width="78" height="78" as="geometry" />
        </mxCell>
        <mxCell id="_4Rwr4IBbifDaKIr4gAn-5" value="" style="sketch=0;points=[[0,0,0],[0.25,0,0],[0.5,0,0],[0.75,0,0],[1,0,0],[0,1,0],[0.25,1,0],[0.5,1,0],[0.75,1,0],[1,1,0],[0,0.25,0],[0,0.5,0],[0,0.75,0],[1,0.25,0],[1,0.5,0],[1,0.75,0]];outlineConnect=0;fontColor=#232F3E;fillColor=#ED7100;strokeColor=#ffffff;dashed=0;verticalLabelPosition=bottom;verticalAlign=top;align=center;html=1;fontSize=12;fontStyle=0;aspect=fixed;shape=mxgraph.aws4.resourceIcon;resIcon=mxgraph.aws4.ec2;" vertex="1" parent="1">
          <mxGeometry x="760" y="320" width="78" height="78" as="geometry" />
        </mxCell>
        <mxCell id="_4Rwr4IBbifDaKIr4gAn-6" value="" style="sketch=0;points=[[0,0,0],[0.25,0,0],[0.5,0,0],[0.75,0,0],[1,0,0],[0,1,0],[0.25,1,0],[0.5,1,0],[0.75,1,0],[1,1,0],[0,0.25,0],[0,0.5,0],[0,0.75,0],[1,0.25,0],[1,0.5,0],[1,0.75,0]];outlineConnect=0;fontColor=#232F3E;fillColor=#ED7100;strokeColor=#ffffff;dashed=0;verticalLabelPosition=bottom;verticalAlign=top;align=center;html=1;fontSize=12;fontStyle=0;aspect=fixed;shape=mxgraph.aws4.resourceIcon;resIcon=mxgraph.aws4.ec2;" vertex="1" parent="1">
          <mxGeometry x="520" y="440" width="78" height="78" as="geometry" />
        </mxCell>
        <mxCell id="_4Rwr4IBbifDaKIr4gAn-14" style="edgeStyle=orthogonalEdgeStyle;rounded=0;orthogonalLoop=1;jettySize=auto;html=1;endArrow=none;endFill=0;" edge="1" parent="1" source="_4Rwr4IBbifDaKIr4gAn-7" target="_4Rwr4IBbifDaKIr4gAn-4">
          <mxGeometry relative="1" as="geometry" />
        </mxCell>
        <mxCell id="_4Rwr4IBbifDaKIr4gAn-7" value="" style="sketch=0;points=[[0,0,0],[0.25,0,0],[0.5,0,0],[0.75,0,0],[1,0,0],[0,1,0],[0.25,1,0],[0.5,1,0],[0.75,1,0],[1,1,0],[0,0.25,0],[0,0.5,0],[0,0.75,0],[1,0.25,0],[1,0.5,0],[1,0.75,0]];outlineConnect=0;fontColor=#232F3E;fillColor=#ED7100;strokeColor=#ffffff;dashed=0;verticalLabelPosition=bottom;verticalAlign=top;align=center;html=1;fontSize=12;fontStyle=0;aspect=fixed;shape=mxgraph.aws4.resourceIcon;resIcon=mxgraph.aws4.ec2;" vertex="1" parent="1">
          <mxGeometry x="640" y="440" width="78" height="78" as="geometry" />
        </mxCell>
        <mxCell id="_4Rwr4IBbifDaKIr4gAn-8" value="" style="sketch=0;points=[[0,0,0],[0.25,0,0],[0.5,0,0],[0.75,0,0],[1,0,0],[0,1,0],[0.25,1,0],[0.5,1,0],[0.75,1,0],[1,1,0],[0,0.25,0],[0,0.5,0],[0,0.75,0],[1,0.25,0],[1,0.5,0],[1,0.75,0]];outlineConnect=0;fontColor=#232F3E;fillColor=#ED7100;strokeColor=#ffffff;dashed=0;verticalLabelPosition=bottom;verticalAlign=top;align=center;html=1;fontSize=12;fontStyle=0;aspect=fixed;shape=mxgraph.aws4.resourceIcon;resIcon=mxgraph.aws4.ec2;" vertex="1" parent="1">
          <mxGeometry x="760" y="440" width="78" height="78" as="geometry" />
        </mxCell>
        <mxCell id="_4Rwr4IBbifDaKIr4gAn-10" style="edgeStyle=orthogonalEdgeStyle;rounded=0;orthogonalLoop=1;jettySize=auto;html=1;entryX=0;entryY=0.5;entryDx=0;entryDy=0;entryPerimeter=0;endArrow=none;endFill=0;" edge="1" parent="1" source="_4Rwr4IBbifDaKIr4gAn-4" target="_4Rwr4IBbifDaKIr4gAn-5">
          <mxGeometry relative="1" as="geometry" />
        </mxCell>
        <mxCell id="_4Rwr4IBbifDaKIr4gAn-11" style="edgeStyle=orthogonalEdgeStyle;rounded=0;orthogonalLoop=1;jettySize=auto;html=1;entryX=0;entryY=0.5;entryDx=0;entryDy=0;entryPerimeter=0;endArrow=none;endFill=0;" edge="1" parent="1" source="_4Rwr4IBbifDaKIr4gAn-7" target="_4Rwr4IBbifDaKIr4gAn-8">
          <mxGeometry relative="1" as="geometry" />
        </mxCell>
        <mxCell id="_4Rwr4IBbifDaKIr4gAn-12" style="edgeStyle=orthogonalEdgeStyle;rounded=0;orthogonalLoop=1;jettySize=auto;html=1;entryX=0;entryY=0.5;entryDx=0;entryDy=0;entryPerimeter=0;endArrow=none;endFill=0;" edge="1" parent="1" source="_4Rwr4IBbifDaKIr4gAn-6" target="_4Rwr4IBbifDaKIr4gAn-7">
          <mxGeometry relative="1" as="geometry" />
        </mxCell>
        <mxCell id="_4Rwr4IBbifDaKIr4gAn-13" style="edgeStyle=orthogonalEdgeStyle;rounded=0;orthogonalLoop=1;jettySize=auto;html=1;entryX=0.5;entryY=1;entryDx=0;entryDy=0;entryPerimeter=0;endArrow=none;endFill=0;" edge="1" parent="1" source="_4Rwr4IBbifDaKIr4gAn-6" target="_4Rwr4IBbifDaKIr4gAn-3">
          <mxGeometry relative="1" as="geometry" />
        </mxCell>
        <mxCell id="_4Rwr4IBbifDaKIr4gAn-15" style="edgeStyle=orthogonalEdgeStyle;rounded=0;orthogonalLoop=1;jettySize=auto;html=1;entryX=0.5;entryY=1;entryDx=0;entryDy=0;entryPerimeter=0;endArrow=none;endFill=0;" edge="1" parent="1" source="_4Rwr4IBbifDaKIr4gAn-8" target="_4Rwr4IBbifDaKIr4gAn-5">
          <mxGeometry relative="1" as="geometry" />
        </mxCell>
        <mxCell id="_4Rwr4IBbifDaKIr4gAn-16" style="edgeStyle=orthogonalEdgeStyle;rounded=0;orthogonalLoop=1;jettySize=auto;html=1;exitX=1;exitY=0;exitDx=0;exitDy=0;exitPerimeter=0;entryX=0;entryY=1;entryDx=0;entryDy=0;entryPerimeter=0;endArrow=none;endFill=0;" edge="1" parent="1" source="_4Rwr4IBbifDaKIr4gAn-7" target="_4Rwr4IBbifDaKIr4gAn-5">
          <mxGeometry relative="1" as="geometry" />
        </mxCell>
        <mxCell id="_4Rwr4IBbifDaKIr4gAn-17" style="edgeStyle=orthogonalEdgeStyle;rounded=0;orthogonalLoop=1;jettySize=auto;html=1;exitX=0;exitY=0;exitDx=0;exitDy=0;exitPerimeter=0;entryX=1;entryY=1;entryDx=0;entryDy=0;entryPerimeter=0;endArrow=none;endFill=0;" edge="1" parent="1" source="_4Rwr4IBbifDaKIr4gAn-8" target="_4Rwr4IBbifDaKIr4gAn-4">
          <mxGeometry relative="1" as="geometry" />
        </mxCell>
        <mxCell id="_4Rwr4IBbifDaKIr4gAn-18" style="edgeStyle=orthogonalEdgeStyle;rounded=0;orthogonalLoop=1;jettySize=auto;html=1;exitX=1;exitY=0;exitDx=0;exitDy=0;exitPerimeter=0;entryX=0;entryY=1;entryDx=0;entryDy=0;entryPerimeter=0;endArrow=none;endFill=0;" edge="1" parent="1" source="_4Rwr4IBbifDaKIr4gAn-6" target="_4Rwr4IBbifDaKIr4gAn-4">
          <mxGeometry relative="1" as="geometry" />
        </mxCell>
        <mxCell id="_4Rwr4IBbifDaKIr4gAn-19" style="edgeStyle=orthogonalEdgeStyle;rounded=0;orthogonalLoop=1;jettySize=auto;html=1;exitX=1;exitY=1;exitDx=0;exitDy=0;exitPerimeter=0;entryX=0;entryY=0;entryDx=0;entryDy=0;entryPerimeter=0;endArrow=none;endFill=0;" edge="1" parent="1" source="_4Rwr4IBbifDaKIr4gAn-3" target="_4Rwr4IBbifDaKIr4gAn-7">
          <mxGeometry relative="1" as="geometry" />
        </mxCell>
        <mxCell id="_4Rwr4IBbifDaKIr4gAn-24" style="edgeStyle=orthogonalEdgeStyle;rounded=0;orthogonalLoop=1;jettySize=auto;html=1;" edge="1" parent="1" source="_4Rwr4IBbifDaKIr4gAn-22" target="_4Rwr4IBbifDaKIr4gAn-2">
          <mxGeometry relative="1" as="geometry" />
        </mxCell>
        <mxCell id="_4Rwr4IBbifDaKIr4gAn-22" value="Placement group Cluster&lt;div&gt;&lt;span style=&quot;font-weight: normal;&quot;&gt;Low latency 10 Gbps network&lt;/span&gt;&lt;/div&gt;" style="text;html=1;align=center;verticalAlign=middle;resizable=0;points=[];autosize=1;strokeColor=none;fillColor=none;fontSize=20;fontStyle=1" vertex="1" parent="1">
          <mxGeometry x="525" y="170" width="290" height="60" as="geometry" />
        </mxCell>
      </root>
    </mxGraphModel>
  </diagram>
</mxfile>
